<svg id="Layer_1" data-name="Layer 1" xmlns="http://www.w3.org/2000/svg" viewBox="0 0 256 256"><title>sun</title><path d="M186.18,128A58.18,58.18,0,1,1,128,69.82,58.18,58.18,0,0,1,186.18,128ZM137,49.23V9A9,9,0,0,0,128,0h0a9,9,0,0,0-9,9V49.23a9,9,0,0,0,9,9h0A9,9,0,0,0,137,49.23Zm0,197.82V206.77a9,9,0,0,0-8.95-9h0a9,9,0,0,0-9,9v40.28a9,9,0,0,0,9,8.95h0A9,9,0,0,0,137,247.05ZM206.77,137h40.28A9,9,0,0,0,256,128h0a9,9,0,0,0-8.95-9H206.77a9,9,0,0,0-9,9h0A9,9,0,0,0,206.77,137ZM9,137H49.23a9,9,0,0,0,9-8.95h0a9,9,0,0,0-9-9H9A9,9,0,0,0,0,128H0A9,9,0,0,0,9,137ZM190,78.63l28.48-28.48a8.94,8.94,0,0,0,0-12.66h0a8.94,8.94,0,0,0-12.66,0L177.37,66a8.94,8.94,0,0,0,0,12.66h0A8.94,8.94,0,0,0,190,78.63ZM50.15,218.51,78.63,190a8.94,8.94,0,0,0,0-12.66h0a8.94,8.94,0,0,0-12.66,0L37.49,205.85a8.94,8.94,0,0,0,0,12.66h0A8.94,8.94,0,0,0,50.15,218.51ZM177.37,190l28.48,28.48a8.94,8.94,0,0,0,12.66,0h0a8.94,8.94,0,0,0,0-12.66L190,177.37a8.94,8.94,0,0,0-12.66,0h0A8.94,8.94,0,0,0,177.37,190ZM37.49,50.15,66,78.63a8.94,8.94,0,0,0,12.66,0h0a8.94,8.94,0,0,0,0-12.66L50.15,37.49a8.94,8.94,0,0,0-12.66,0h0A8.94,8.94,0,0,0,37.49,50.15Z"/></svg>